<svg id="Capa_1" data-name="Capa 1" xmlns="http://www.w3.org/2000/svg" viewBox="0 0 1280 720"><defs><style>.cls-1{font-size:150.18px;font-family:Piximisa;}.cls-1,.cls-3{fill:#34b18d;}.cls-2{fill:#cdcccc;}.cls-4{fill:#fff;}</style></defs><title>DoubClick Azul Esmeralda</title><text class="cls-1" transform="translate(322.27 397.64)">DoubClick</text><polygon class="cls-2" points="953.65 397.64 1012.77 338.52 1024.4 350.14 976.87 397.67 953.65 397.64"/><polygon class="cls-3" points="953.65 302.21 1012.77 361.34 1024.4 349.71 976.77 302.08 953.65 302.21"/><polygon class="cls-2" points="326.35 397.64 267.23 338.52 255.6 350.14 303.13 397.67 326.35 397.64"/><polygon class="cls-3" points="326.35 302.21 267.23 361.34 255.6 349.71 303.23 302.08 326.35 302.21"/><polygon class="cls-4" points="840 451.51 817.43 367.29 892.15 415.03 865 422.33 885.38 447.3 876.35 454.34 855.05 428.89 840 451.51"/><path class="cls-2" d="M876,458L855.3,433.35,839,457.91l-25.88-96.57L898.68,416l-29,7.8,19.5,23.89Zm-21.15-33.58,21.93,26.2,4.84-3.77-21.26-26.06,25.29-6.8-63.82-40.77,19.26,71.87Z"/><path class="cls-2" d="M875.23,289.42a2,2,0,0,0-2.8,0L847,314.82a2,2,0,0,0,2.8,2.8l25.41-25.4A2,2,0,0,0,875.23,289.42Z"/><path class="cls-2" d="M768,393.77l-25.41,25.4a2,2,0,0,0,2.8,2.8l25.41-25.4A2,2,0,0,0,768,393.77Z"/><path class="cls-2" d="M755.07,355.69a2,2,0,0,0-2-2H717.16a2,2,0,1,0,0,4h35.93A2,2,0,0,0,755.07,355.69Z"/><path class="cls-2" d="M745.44,289.42a2,2,0,1,0-2.8,2.8L768,317.62a2,2,0,0,0,2.8-2.8Z"/><path class="cls-2" d="M808.94,262a2,2,0,0,0-2,2v35.92a2,2,0,0,0,4,0V264A2,2,0,0,0,808.94,262Z"/></svg>