<svg id="Capa_1" data-name="Capa 1" xmlns="http://www.w3.org/2000/svg" viewBox="0 0 1280 720"><defs><style>.cls-1{font-size:150.18px;font-family:Piximisa;}.cls-1,.cls-3{fill:#1d1d1b;}.cls-2{fill:#34b18d;}.cls-4{fill:#fff;}.cls-5{fill:#cdcccc;}</style></defs><title>DoubClick Negro</title><text class="cls-1" transform="translate(322.27 396.73)">DoubClick</text><polygon class="cls-2" points="953.65 396.74 1012.77 337.61 1024.4 349.24 976.87 396.77 953.65 396.74"/><polygon class="cls-3" points="953.65 301.31 1012.77 360.43 1024.4 348.81 976.77 301.18 953.65 301.31"/><polygon class="cls-2" points="326.35 396.74 267.23 337.61 255.6 349.24 303.13 396.77 326.35 396.74"/><polygon class="cls-3" points="326.35 301.31 267.23 360.43 255.6 348.81 303.23 301.18 326.35 301.31"/><polygon class="cls-4" points="836.74 446.79 814.17 362.57 888.88 410.31 861.74 417.61 882.11 442.58 873.09 449.62 851.79 424.17 836.74 446.79"/><path class="cls-5" d="M872,287.65a2,2,0,0,0-2.8,0L843.79,313a2,2,0,0,0,2.8,2.8L872,290.45A2,2,0,0,0,872,287.65Z"/><path class="cls-5" d="M764.81,392l-25.41,25.4a2,2,0,0,0,2.8,2.8l25.41-25.4A2,2,0,1,0,764.81,392Z"/><path class="cls-5" d="M751.84,353.92a2,2,0,0,0-2-2H713.93a2,2,0,1,0,0,4h35.93A2,2,0,0,0,751.84,353.92Z"/><path class="cls-5" d="M742.21,287.65a2,2,0,0,0-2.8,2.8l25.41,25.4a2,2,0,1,0,2.8-2.8Z"/><path class="cls-5" d="M805.7,260.2a2,2,0,0,0-2,2V298.1a2,2,0,0,0,4,0V262.18A2,2,0,0,0,805.7,260.2Z"/><path class="cls-5" d="M873.79,454.44l-20.67-24.68-16.35,24.56L810.9,357.75l85.61,54.7-29,7.8L887,444.14Zm-21.15-33.58,21.93,26.2,4.84-3.77-21.26-26.06,25.29-6.8-63.82-40.77,19.26,71.87Z"/></svg>